<svg width="896" height="288" viewBox="0 0 896 288" fill="none" xmlns="http://www.w3.org/2000/svg">
  <style>
    * {
      transform-origin: center;
      transform-box: fill-box;
    }
    .animate-fade-in {
      animation: fade-in 2s cubic-bezier(0, 0, 0.2, 1) forwards;
    }
    .animate-ping {
      animation: ping 1s cubic-bezier(0, 0, 0.2, 1) infinite;
    }
    .animate-circle{
      animation: trans 10s cubic-bezier(0.75, 0, 0.25, 1) alternate infinite;
    }
    .animate-circle-2{
      animation: trans2 4s cubic-bezier(0.5, 0.2, 0.2, 0.5) forwards;
    }
    .description {
      opacity: 0;
      animation-delay: 1s;
    }
    @keyframes trans {
      0% {
        transform: translateX(0) translateY(0) scale(0);
      }
    
      33% {
        transform: translateX(40vw) translateY(10vh) scale(1.1);
      }
    
      67% {
        transform: translateX(70vw) translateY(10vh) scale(0.9);
      }
    
      100% {
        transform: translateX(150vw) translateY(50vh);
      }
    }
    
    @keyframes trans2 {
    0% {
        opacity: 1;
        transform: translateX(150px) translateY(-100px);
    }

    100% {
        opacity: 0;
        transform: translateX(150px) translateY(100px);
      }
    }

    .line{
      border: 1px solid red;
      border-right: 2px solid rgba(255,255,255,.75);
    }
    .anim-typewriter{
      animation: blinkTextCursor 500ms steps(44) infinite normal;
    }
    @keyframes blinkTextCursor{
      from{border-right-color: rgba(255,255,255,.75);}
      to{border-right-color: transparent;}
    }
    @keyframes ping {
      75%,
      100% {
        transform: scale(2);
        opacity: 0;
      }
    }
    @keyframes shine {
      0%{
        fillter:drop-shadow(0px 0px 0px #fff);
      },
      100% {
        fillter:drop-shadow(0px 0px 50px #fff);
      }
    }
    @keyframes fade-in {
      from {
        opacity: 0;
        transform: translate3d(0, -20px, 0);
      }
      to {
        opacity: 1;
        transform: translate3d(0, 0, 0);
      }
    }
    
  </style>
  <rect width="896" height="288" rx="25" fill="url(#paint0_linear_3_4)"/>
   <!-- #PNMINE -->
  <g class="animate-fade-in" filter="url(#filter0_d_3_4)">
    <path d="M282.92 32.264H309.992C318.568 32.264 324.808 33.608 328.712 36.296C332.616 38.92 334.568 43.304 334.568 49.448C334.568 53.16 334.088 56.264 333.128 58.76C332.168 61.256 330.696 63.272 328.712 64.808C326.728 66.344 324.168 67.464 321.032 68.168C317.96 68.808 314.28 69.128 309.992 69.128H300.104V96.104L307.496 101H282.92L290.312 96.104V69.128L285.416 66.632L290.312 64.232V37.16L282.92 32.264ZM309.896 66.632C314.824 66.632 318.504 65.32 320.936 62.696C323.432 60.008 324.68 55.592 324.68 49.448C324.68 46.376 324.36 43.88 323.72 41.96C323.144 40.04 322.248 38.536 321.032 37.448C319.816 36.36 318.28 35.624 316.424 35.24C314.568 34.856 312.424 34.664 309.992 34.664L300.104 37.16V64.232L309.896 66.632ZM334.576 32.264H359.152L354.448 37.16L383.728 91.208V69.128L378.832 66.632L383.728 64.232V37.16L376.336 32.264H393.52L386.128 37.16V64.232L391.024 66.632L386.128 69.128V96.104L393.52 101H368.944L373.648 96.104L344.368 42.056V64.232L349.264 66.632L344.368 69.128V96.104L351.76 101H334.576L341.968 96.104V69.128L336.976 66.632L341.968 64.232V37.16L334.576 32.264ZM397.389 32.264H421.965L416.109 37.16L430.413 81.608L447.501 36.2L441.549 32.264H466.125L458.733 37.16V64.232L463.725 66.632L458.733 69.128V96.104L466.125 101H441.549L448.941 96.104V69.128L444.045 66.632L448.941 64.232V39.08L426.861 101L407.181 39.848V64.232L412.077 66.632L407.181 69.128V96.104L414.573 101H397.389L404.685 96.104V69.128L399.789 66.632L404.685 64.232V37.16L397.389 32.264ZM431.565 32.264L436.845 42.056L431.565 51.944L426.669 42.056L431.565 32.264ZM477.343 96.104V69.128L472.447 66.632L477.343 64.232V37.16L469.951 32.264H494.527L487.135 37.16V64.232L492.031 66.632L487.135 69.128V96.104L494.527 101H469.951L477.343 96.104ZM498.358 32.264H522.934L518.23 37.16L547.51 91.208V69.128L542.614 66.632L547.51 64.232V37.16L540.118 32.264H557.302L549.91 37.16V64.232L554.806 66.632L549.91 69.128V96.104L557.302 101H532.726L537.43 96.104L508.15 42.056V64.232L513.046 66.632L508.15 69.128V96.104L515.542 101H498.358L505.75 96.104V69.128L500.758 66.632L505.75 64.232V37.16L498.358 32.264ZM561.17 32.264H605.426L612.818 29.768L610.322 46.952L605.426 34.664L578.354 37.16V64.232L590.642 65.384L600.53 59.24L593.138 81.416L590.642 67.88L578.354 69.128V96.104L605.426 98.6L610.322 86.312L612.818 103.496L605.426 101H561.17L568.562 96.104V69.128L563.666 66.632L568.562 64.232V37.16L561.17 32.264Z" 
      fill="white"/>
  </g>
  <!-- #1134  -->
  <path d="M801.094 249.094C800.792 249.396 800.589 249.453 800.484 249.266C800.38 249.068 800.422 248.885 800.609 248.719C802.703 246.979 804.448 245.146 805.844 243.219C805.896 243.146 805.964 243.109 806.047 243.109H806.75C806.927 243.109 807.016 243.193 807.016 243.359L806.984 259.875C806.995 262.729 807.865 264.167 809.594 264.188C809.792 264.208 809.885 264.349 809.875 264.609C809.865 264.859 809.755 264.984 809.547 264.984H801.438C801.198 264.984 801.078 264.849 801.078 264.578C801.078 264.297 801.193 264.156 801.422 264.156C802.943 264.219 803.703 262.76 803.703 259.781L803.734 250.547C803.734 248.339 802.854 247.854 801.094 249.094ZM811.375 249.094C811.073 249.396 810.87 249.453 810.766 249.266C810.661 249.068 810.703 248.885 810.891 248.719C812.984 246.979 814.729 245.146 816.125 243.219C816.177 243.146 816.245 243.109 816.328 243.109H817.031C817.208 243.109 817.297 243.193 817.297 243.359L817.266 259.875C817.276 262.729 818.146 264.167 819.875 264.188C820.073 264.208 820.167 264.349 820.156 264.609C820.146 264.859 820.036 264.984 819.828 264.984H811.719C811.479 264.984 811.359 264.849 811.359 264.578C811.359 264.297 811.474 264.156 811.703 264.156C813.224 264.219 813.984 262.76 813.984 259.781L814.016 250.547C814.016 248.339 813.135 247.854 811.375 249.094ZM821.984 246.312C822.464 245.365 823.234 244.536 824.297 243.828C825.37 243.109 826.672 242.76 828.203 242.781C829.547 242.781 830.797 243.099 831.953 243.734C833.109 244.359 833.802 245.432 834.031 246.953C834.135 248.536 833.833 249.656 833.125 250.312C832.427 250.969 831.62 251.438 830.703 251.719C833.474 252.51 834.88 254.422 834.922 257.453C834.953 259.557 834.224 261.37 832.734 262.891C831.255 264.411 829.641 265.182 827.891 265.203C826.141 265.214 824.672 264.943 823.484 264.391C822.307 263.828 821.562 262.812 821.25 261.344C821.115 260.792 821.193 260.281 821.484 259.812C821.776 259.344 822.25 259.099 822.906 259.078C823.677 259.047 824.219 259.344 824.531 259.969C824.844 260.583 824.99 261.302 824.969 262.125C825.021 262.792 825.26 263.354 825.688 263.812C826.115 264.271 826.839 264.469 827.859 264.406C829.182 264.344 830.125 263.828 830.688 262.859C831.25 261.88 831.464 260.693 831.328 259.297C831.13 256.922 830.474 255.458 829.359 254.906C828.245 254.344 826.99 254.104 825.594 254.188C825.25 254.219 825.062 254.109 825.031 253.859C825.01 253.599 825.151 253.427 825.453 253.344C826.661 253.01 827.698 252.49 828.562 251.781C829.438 251.073 829.964 250.068 830.141 248.766C830.297 247.578 830.021 246.599 829.312 245.828C828.604 245.057 827.62 244.656 826.359 244.625C825.547 244.604 824.844 244.812 824.25 245.25C823.656 245.677 823.115 246.156 822.625 246.688C822.375 246.948 822.167 247.026 822 246.922C821.833 246.818 821.828 246.615 821.984 246.312ZM846.266 243.469V255.969C846.266 256.125 846.344 256.203 846.5 256.203H849.453C849.62 256.203 849.703 256.292 849.703 256.469V258.172C849.703 258.349 849.62 258.438 849.453 258.438H846.5C846.344 258.438 846.266 258.526 846.266 258.703V259.875C846.255 262.75 847.115 264.188 848.844 264.188C849.052 264.208 849.151 264.349 849.141 264.609C849.141 264.859 849.036 264.984 848.828 264.984H840.688C840.458 264.984 840.344 264.849 840.344 264.578C840.354 264.297 840.469 264.156 840.688 264.156C842.229 264.177 842.995 262.719 842.984 259.781V258.703C842.984 258.63 842.958 258.568 842.906 258.516C842.865 258.464 842.807 258.438 842.734 258.438H836.062C835.896 258.438 835.812 258.349 835.812 258.172V256.281C835.812 256.26 835.823 256.219 835.844 256.156L844.078 243.328C844.151 243.255 844.224 243.219 844.297 243.219H846.016C846.182 243.219 846.266 243.302 846.266 243.469ZM837.375 256.203H842.734C842.911 256.203 843 256.125 843 255.969V247.609C843 247.474 842.938 247.396 842.812 247.375C842.698 247.323 842.604 247.354 842.531 247.469L837.156 255.828C837.104 255.911 837.104 255.995 837.156 256.078C837.198 256.161 837.271 256.203 837.375 256.203ZM860.031 261.141L860.047 254.625C860.047 252.875 859.729 251.906 859.094 251.719C859.021 251.667 858.984 251.604 858.984 251.531C858.984 251.448 859.021 251.375 859.094 251.312C860.021 250.646 860.786 249.708 861.391 248.5C861.432 248.406 861.505 248.359 861.609 248.359C861.714 248.359 861.792 248.406 861.844 248.5C862.396 249.698 863.188 250.63 864.219 251.297C864.292 251.359 864.328 251.438 864.328 251.531C864.328 251.615 864.286 251.677 864.203 251.719C863.516 251.917 863.182 252.885 863.203 254.625V260.125C863.203 261.198 863.401 261.854 863.797 262.094C864.234 262.385 864.604 262.271 864.906 261.75C865.021 261.552 865.151 261.51 865.297 261.625C865.453 261.729 865.453 261.906 865.297 262.156C864.984 262.635 864.688 263.125 864.406 263.625C864.135 264.125 863.859 264.615 863.578 265.094C863.401 265.396 863.156 265.453 862.844 265.266C861.292 264.526 860.38 263.589 860.109 262.453C860.089 262.37 860.026 262.312 859.922 262.281C859.818 262.25 859.745 262.266 859.703 262.328C859.109 262.807 858.516 263.312 857.922 263.844C857.328 264.365 856.922 264.844 856.703 265.281C856.526 265.531 856.333 265.526 856.125 265.266C855.552 264.599 854.99 264.089 854.438 263.734C853.896 263.38 853.172 263.094 852.266 262.875C852.068 262.802 851.974 262.714 851.984 262.609C851.995 262.505 852.062 262.427 852.188 262.375C852.448 262.281 852.682 262.109 852.891 261.859C853.109 261.599 853.219 261.172 853.219 260.578V253.969C853.219 252.906 853.021 252.255 852.625 252.016C852.156 251.734 851.781 251.849 851.5 252.359C851.385 252.557 851.255 252.599 851.109 252.484C850.964 252.37 850.969 252.188 851.125 251.938C851.427 251.469 851.714 250.984 851.984 250.484C852.266 249.984 852.552 249.484 852.844 248.984C853.021 248.672 853.255 248.615 853.547 248.812H853.562C855.448 249.802 856.391 251.156 856.391 252.875L856.359 260.875C856.359 261.177 856.438 261.38 856.594 261.484L857.938 262.594C858.042 262.688 858.161 262.698 858.297 262.625C859.141 261.958 859.688 261.531 859.938 261.344C860 261.302 860.031 261.234 860.031 261.141Z" 
    fill="white"/>
  <!-- #nhell -->
  <path  d="M39.68 248.072C40.4907 248.072 41.1627 248.179 41.696 248.392C42.2507 248.605 42.7093 248.904 43.072 249.288C43.4773 249.715 43.7653 250.248 43.936 250.888C44.1067 251.528 44.192 252.392 44.192 253.48V262.024C44.192 262.92 44.3733 263.528 44.736 263.848C45.12 264.168 45.7493 264.328 46.624 264.328V265C46.2613 264.979 45.7067 264.957 44.96 264.936C44.2133 264.893 43.488 264.872 42.784 264.872C42.08 264.872 41.3867 264.893 40.704 264.936C40.0427 264.957 39.5413 264.979 39.2 265V264.328C39.968 264.328 40.512 264.168 40.832 263.848C41.152 263.528 41.312 262.92 41.312 262.024V252.776C41.312 252.115 41.2587 251.507 41.152 250.952C41.0453 250.397 40.8 249.949 40.416 249.608C40.0533 249.267 39.488 249.096 38.72 249.096C37.824 249.096 37.0347 249.352 36.352 249.864C35.6907 250.376 35.168 251.08 34.784 251.976C34.4213 252.851 34.24 253.832 34.24 254.92V262.024C34.24 262.92 34.4 263.528 34.72 263.848C35.04 264.168 35.584 264.328 36.352 264.328V265C36.0107 264.979 35.4987 264.957 34.816 264.936C34.1547 264.893 33.472 264.872 32.768 264.872C32.064 264.872 31.3387 264.893 30.592 264.936C29.8453 264.957 29.2907 264.979 28.928 265V264.328C29.8027 264.328 30.4213 264.168 30.784 263.848C31.168 263.528 31.36 262.92 31.36 262.024V252.008C31.36 251.048 31.1893 250.344 30.848 249.896C30.5067 249.427 29.8667 249.192 28.928 249.192V248.52C29.6107 248.584 30.272 248.616 30.912 248.616C31.5307 248.616 32.1173 248.584 32.672 248.52C33.248 248.435 33.7707 248.317 34.24 248.168V251.944C34.7947 250.493 35.5627 249.491 36.544 248.936C37.5467 248.36 38.592 248.072 39.68 248.072ZM53.0458 239.944V251.912C53.6004 250.461 54.3684 249.459 55.3498 248.904C56.3524 248.349 57.3978 248.072 58.4858 248.072C59.2964 248.072 59.9684 248.179 60.5018 248.392C61.0564 248.605 61.5151 248.904 61.8778 249.288C62.2831 249.715 62.5711 250.248 62.7418 250.888C62.9124 251.528 62.9978 252.392 62.9978 253.48V262.024C62.9978 262.92 63.1791 263.528 63.5417 263.848C63.9258 264.168 64.5551 264.328 65.4298 264.328V265C65.0671 264.979 64.5124 264.957 63.7658 264.936C63.0191 264.893 62.2938 264.872 61.5898 264.872C60.8858 264.872 60.1924 264.893 59.5098 264.936C58.8484 264.957 58.3471 264.979 58.0058 265V264.328C58.7738 264.328 59.3178 264.168 59.6378 263.848C59.9578 263.528 60.1178 262.92 60.1178 262.024V252.776C60.1178 252.115 60.0644 251.507 59.9578 250.952C59.8511 250.397 59.6058 249.949 59.2218 249.608C58.8591 249.267 58.2938 249.096 57.5258 249.096C56.6511 249.096 55.8724 249.341 55.1898 249.832C54.5284 250.323 54.0058 251.005 53.6218 251.88C53.2378 252.755 53.0458 253.757 53.0458 254.888V262.024C53.0458 262.92 53.2058 263.528 53.5258 263.848C53.8458 264.168 54.3898 264.328 55.1578 264.328V265C54.8164 264.979 54.3044 264.957 53.6218 264.936C52.9604 264.893 52.2778 264.872 51.5738 264.872C50.8698 264.872 50.1444 264.893 49.3978 264.936C48.6511 264.957 48.0964 264.979 47.7338 265V264.328C48.6084 264.328 49.2271 264.168 49.5898 263.848C49.9738 263.528 50.1658 262.92 50.1658 262.024V243.784C50.1658 242.824 49.9951 242.12 49.6538 241.672C49.3124 241.203 48.6724 240.968 47.7338 240.968V240.296C48.4164 240.36 49.0778 240.392 49.7178 240.392C50.3364 240.392 50.9231 240.36 51.4778 240.296C52.0538 240.211 52.5764 240.093 53.0458 239.944ZM74.6103 248.072C76.4876 248.072 77.9489 248.648 78.9943 249.8C80.0609 250.931 80.5943 252.701 80.5943 255.112H69.2983L69.2663 254.504H77.5223C77.5649 253.459 77.4796 252.499 77.2663 251.624C77.0529 250.728 76.7116 250.013 76.2423 249.48C75.7943 248.947 75.2076 248.68 74.4823 248.68C73.5009 248.68 72.6263 249.171 71.8583 250.152C71.1116 251.133 70.6636 252.691 70.5143 254.824L70.6102 254.952C70.5676 255.272 70.5356 255.624 70.5143 256.008C70.4929 256.392 70.4823 256.776 70.4823 257.16C70.4823 258.611 70.7169 259.859 71.1863 260.904C71.6556 261.949 72.2636 262.749 73.0103 263.304C73.7783 263.837 74.5676 264.104 75.3783 264.104C76.0183 264.104 76.6263 264.008 77.2023 263.816C77.7783 263.603 78.3116 263.261 78.8023 262.792C79.2929 262.323 79.7196 261.693 80.0823 260.904L80.7223 261.16C80.4876 261.864 80.1036 262.547 79.5703 263.208C79.0369 263.869 78.3649 264.413 77.5543 264.84C76.7436 265.245 75.8049 265.448 74.7383 265.448C73.2023 265.448 71.8796 265.096 70.7703 264.392C69.6823 263.688 68.8396 262.717 68.2423 261.48C67.6663 260.221 67.3783 258.781 67.3783 257.16C67.3783 255.283 67.6769 253.672 68.2743 252.328C68.8716 250.963 69.7143 249.917 70.8023 249.192C71.8903 248.445 73.1596 248.072 74.6103 248.072ZM88.1098 239.912V262.024C88.1098 262.92 88.2911 263.528 88.6538 263.848C89.0378 264.168 89.6671 264.328 90.5417 264.328V265C90.1791 264.979 89.6244 264.957 88.8778 264.936C88.1524 264.893 87.4164 264.872 86.6698 264.872C85.9444 264.872 85.2084 264.893 84.4618 264.936C83.7151 264.957 83.1604 264.979 82.7978 265V264.328C83.6724 264.328 84.2911 264.168 84.6538 263.848C85.0378 263.528 85.2298 262.92 85.2298 262.024V243.752C85.2298 242.792 85.0591 242.088 84.7178 241.64C84.3764 241.171 83.7364 240.936 82.7978 240.936V240.264C83.4804 240.328 84.1418 240.36 84.7818 240.36C85.4004 240.36 85.9871 240.328 86.5418 240.264C87.1178 240.179 87.6404 240.061 88.1098 239.912ZM97.266 239.912V262.024C97.266 262.92 97.4473 263.528 97.81 263.848C98.194 264.168 98.8233 264.328 99.698 264.328V265C99.3353 264.979 98.7807 264.957 98.034 264.936C97.3087 264.893 96.5727 264.872 95.826 264.872C95.1007 264.872 94.3647 264.893 93.618 264.936C92.8713 264.957 92.3167 264.979 91.954 265V264.328C92.8287 264.328 93.4473 264.168 93.81 263.848C94.194 263.528 94.386 262.92 94.386 262.024V243.752C94.386 242.792 94.2153 242.088 93.874 241.64C93.5327 241.171 92.8927 240.936 91.954 240.936V240.264C92.6367 240.328 93.298 240.36 93.938 240.36C94.5567 240.36 95.1433 240.328 95.698 240.264C96.274 240.179 96.7967 240.061 97.266 239.912Z" 
    fill="white"/>
  <!-- #Programmer -->
  <g class="description animate-fade-in" filter="url(#filter1_d_3_4)">
    <path d="M370.008 146.592H367.776L368.208 146.232V151.896L367.872 151.488L370.848 151.968V153H364.176V151.968L366.6 151.464L366.24 151.896V137.376L366.648 137.832L364.176 137.4V136.368L368.256 136.248H370.968C372.2 136.248 373.216 136.456 374.016 136.872C374.816 137.288 375.416 137.864 375.816 138.6C376.216 139.336 376.416 140.192 376.416 141.168C376.416 142.24 376.176 143.184 375.696 144C375.216 144.816 374.496 145.456 373.536 145.92C372.592 146.368 371.416 146.592 370.008 146.592ZM370.68 137.712H367.848L368.208 137.352V145.488L367.776 145.128H370.008C371.416 145.128 372.496 144.776 373.248 144.072C374.016 143.368 374.4 142.416 374.4 141.216C374.4 140.128 374.08 139.272 373.44 138.648C372.816 138.024 371.896 137.712 370.68 137.712ZM377.864 153V151.968L380.24 151.464L379.928 151.896V137.4L380.336 137.856L377.864 137.4V136.368L381.968 136.248H384.776C386.584 136.248 387.952 136.624 388.88 137.376C389.808 138.128 390.272 139.216 390.272 140.64C390.272 141.952 389.856 143.024 389.023 143.856C388.208 144.688 386.96 145.192 385.28 145.368L385.256 145.128C385.88 145.192 386.384 145.336 386.768 145.56C387.168 145.768 387.504 146.056 387.776 146.424C388.048 146.776 388.312 147.216 388.568 147.744L390.584 151.824L389.984 151.416L392 151.968V153H389.048L386.84 148.272C386.536 147.584 386.24 147.056 385.952 146.688C385.68 146.304 385.336 146.032 384.92 145.872C384.52 145.712 383.944 145.632 383.192 145.632L381.536 145.656L381.896 145.32V151.896L381.584 151.464L384.368 151.968V153H377.864ZM381.896 144.744L381.536 144.216H383.816C385.24 144.216 386.336 143.928 387.104 143.352C387.872 142.76 388.256 141.896 388.256 140.76C388.256 139.768 387.944 139.016 387.32 138.504C386.696 137.976 385.768 137.712 384.536 137.712H381.536L381.896 137.352V144.744ZM400.774 153.216C399.398 153.216 398.158 152.904 397.054 152.28C395.966 151.656 395.102 150.72 394.462 149.472C393.838 148.208 393.526 146.648 393.526 144.792C393.526 143.336 393.718 142.064 394.102 140.976C394.502 139.872 395.054 138.952 395.758 138.216C396.462 137.48 397.27 136.936 398.182 136.584C399.11 136.216 400.102 136.032 401.158 136.032C402.182 136.032 403.142 136.208 404.038 136.56C404.934 136.896 405.718 137.416 406.39 138.12C407.062 138.808 407.582 139.672 407.95 140.712C408.334 141.752 408.526 142.96 408.526 144.336C408.526 146.224 408.182 147.832 407.494 149.16C406.822 150.472 405.902 151.48 404.734 152.184C403.566 152.872 402.246 153.216 400.774 153.216ZM400.894 151.656C401.886 151.656 402.798 151.408 403.63 150.912C404.478 150.4 405.15 149.616 405.646 148.56C406.158 147.504 406.414 146.136 406.414 144.456C406.414 142.856 406.174 141.552 405.694 140.544C405.23 139.536 404.59 138.792 403.774 138.312C402.974 137.832 402.07 137.592 401.062 137.592C400.086 137.592 399.182 137.84 398.35 138.336C397.534 138.816 396.878 139.584 396.382 140.64C395.886 141.68 395.638 143.04 395.638 144.72C395.638 146.32 395.87 147.632 396.334 148.656C396.814 149.68 397.446 150.44 398.23 150.936C399.03 151.416 399.918 151.656 400.894 151.656ZM419.089 153.192C417.537 153.192 416.185 152.88 415.033 152.256C413.881 151.616 412.985 150.672 412.345 149.424C411.721 148.16 411.409 146.616 411.409 144.792C411.409 142.936 411.729 141.36 412.369 140.064C413.009 138.752 413.921 137.752 415.105 137.064C416.305 136.376 417.721 136.032 419.353 136.032C420.217 136.032 421.121 136.136 422.065 136.344C423.025 136.536 423.993 136.84 424.969 137.256L424.801 141H423.601L423.193 138.048L423.505 138.384C422.833 138.144 422.137 137.952 421.417 137.808C420.697 137.664 420.017 137.592 419.377 137.592C418.177 137.592 417.137 137.872 416.257 138.432C415.377 138.992 414.697 139.808 414.217 140.88C413.753 141.936 413.521 143.224 413.521 144.744C413.521 146.952 414.033 148.656 415.057 149.856C416.081 151.04 417.505 151.632 419.329 151.632C419.937 151.632 420.569 151.568 421.225 151.44C421.897 151.296 422.593 151.088 423.313 150.816L423.049 151.272V146.088L423.409 146.448L420.961 146.136V145.056L426.889 144.936V146.016L424.633 146.472L424.897 146.088V151.92C423.857 152.352 422.849 152.672 421.873 152.88C420.897 153.088 419.969 153.192 419.089 153.192ZM428.864 153V151.968L431.24 151.464L430.928 151.896V137.4L431.336 137.856L428.864 137.4V136.368L432.968 136.248H435.776C437.584 136.248 438.952 136.624 439.88 137.376C440.808 138.128 441.272 139.216 441.272 140.64C441.272 141.952 440.856 143.024 440.023 143.856C439.208 144.688 437.96 145.192 436.28 145.368L436.256 145.128C436.88 145.192 437.384 145.336 437.768 145.56C438.168 145.768 438.504 146.056 438.776 146.424C439.048 146.776 439.312 147.216 439.568 147.744L441.584 151.824L440.984 151.416L443 151.968V153H440.048L437.84 148.272C437.536 147.584 437.24 147.056 436.952 146.688C436.68 146.304 436.336 146.032 435.92 145.872C435.52 145.712 434.944 145.632 434.192 145.632L432.536 145.656L432.896 145.32V151.896L432.584 151.464L435.368 151.968V153H428.864ZM432.896 144.744L432.536 144.216H434.816C436.24 144.216 437.336 143.928 438.104 143.352C438.872 142.76 439.256 141.896 439.256 140.76C439.256 139.768 438.944 139.016 438.32 138.504C437.696 137.976 436.768 137.712 435.536 137.712H432.536L432.896 137.352V144.744ZM458.372 151.944L457.82 151.464L460.076 151.968V153H453.836V151.968L456.332 151.488L456.14 151.824L454.868 147.984L455.228 148.272H447.884L448.22 147.984L446.852 151.776L446.732 151.512L449.18 151.968V153H443.276V151.968L445.484 151.464L444.98 151.896L450.836 136.272L452.828 136.2L458.372 151.944ZM448.484 147.144L448.292 146.832H454.844L454.628 147.168L451.484 137.4L451.94 137.424L448.484 147.144ZM479.701 137.28L477.301 137.832L477.613 137.304V151.896L477.301 151.464L479.701 151.968V153H473.725V151.968L476.173 151.464L475.789 151.896V138.432L476.101 138.456L470.653 148.632L469.333 148.728L464.053 138.408L464.341 138.384V151.896L464.053 151.488L466.429 151.968V153H460.645V151.968L463.045 151.464L462.709 151.896V137.304L463.045 137.832L460.645 137.4V136.368L465.133 136.248L470.341 146.784H470.053L475.429 136.368L479.701 136.248V137.28ZM501.076 137.28L498.676 137.832L498.988 137.304V151.896L498.676 151.464L501.076 151.968V153H495.1V151.968L497.548 151.464L497.164 151.896V138.432L497.476 138.456L492.028 148.632L490.708 148.728L485.428 138.408L485.716 138.384V151.896L485.428 151.488L487.804 151.968V153H482.02V151.968L484.42 151.464L484.084 151.896V137.304L484.42 137.832L482.02 137.4V136.368L486.508 136.248L491.716 146.784H491.428L496.804 136.368L501.076 136.248V137.28ZM514.315 149.064H515.515V153H503.395V151.968L505.771 151.464L505.459 151.896V137.4L505.771 137.832L503.395 137.4V136.368L507.403 136.248H515.227V140.04H514.027L513.595 137.4L514.003 137.712H507.067L507.427 137.352V144.072L507.067 143.712H513.475V145.152H507.067L507.427 144.744V151.896L507.067 151.536H514.315L513.883 151.896L514.315 149.064ZM518.301 153V151.968L520.677 151.464L520.365 151.896V137.4L520.773 137.856L518.301 137.4V136.368L522.405 136.248H525.213C527.021 136.248 528.389 136.624 529.317 137.376C530.245 138.128 530.709 139.216 530.709 140.64C530.709 141.952 530.293 143.024 529.461 143.856C528.645 144.688 527.397 145.192 525.717 145.368L525.693 145.128C526.317 145.192 526.821 145.336 527.205 145.56C527.605 145.768 527.941 146.056 528.213 146.424C528.485 146.776 528.749 147.216 529.005 147.744L531.021 151.824L530.421 151.416L532.437 151.968V153H529.485L527.277 148.272C526.973 147.584 526.677 147.056 526.389 146.688C526.117 146.304 525.773 146.032 525.357 145.872C524.957 145.712 524.381 145.632 523.629 145.632L521.973 145.656L522.333 145.32V151.896L522.021 151.464L524.805 151.968V153H518.301ZM522.333 144.744L521.973 144.216H524.253C525.677 144.216 526.773 143.928 527.541 143.352C528.309 142.76 528.693 141.896 528.693 140.76C528.693 139.768 528.381 139.016 527.757 138.504C527.133 137.976 526.205 137.712 524.973 137.712H521.973L522.333 137.352V144.744Z" 
      fill="white" />
  </g>
  <g class="animate-circle" filter="url(#filter2_b_3_4)">
    <circle cx="122" cy="90" r="81" fill="white" fill-opacity="0.05"/>
    <circle cx="122" cy="90" r="80.5" stroke="white" stroke-opacity="0.2"/>
  </g>
  <g class="animate-circle-2" filter="url(#filter3_b_3_4)">
    <circle cx="173" cy="195" r="16" fill="white" fill-opacity="0.05" />
    <circle cx="173" cy="195" r="15.5" stroke="white" stroke-opacity="0.2"/>
  </g>
    
  <defs>
    <filter id="filter0_d_3_4" x="272.92" y="23.768" width="349.898" height="93.728" filterUnits="userSpaceOnUse" color-interpolation-filters="sRGB">
      <feFlood flood-opacity="0" result="BackgroundImageFix"/>
      <feColorMatrix in="SourceAlpha" type="matrix" values="0 0 0 0 0 0 0 0 0 0 0 0 0 0 0 0 0 0 127 0" result="hardAlpha"/>
      <feOffset dy="4"/>
      <feGaussianBlur stdDeviation="5"/>
      <feComposite in2="hardAlpha" operator="out"/>
      <feColorMatrix type="matrix" values="0 0 0 0 1 0 0 0 0 1 0 0 0 0 1 0 0 0 0.5 0"/>
      <feBlend mode="normal" in2="BackgroundImageFix" result="effect1_dropShadow_3_4"/>
      <feBlend mode="normal" in="SourceGraphic" in2="effect1_dropShadow_3_4" result="shape"/>
    </filter>
    <filter id="filter1_d_3_4" x="344.176" y="127.728" width="205.357" height="42.272" filterUnits="userSpaceOnUse" color-interpolation-filters="sRGB">
      <feFlood flood-opacity="0" result="BackgroundImageFix"/>
      <feColorMatrix in="SourceAlpha" type="matrix" values="0 0 0 0 0 0 0 0 0 0 0 0 0 0 0 0 0 0 127 0" result="hardAlpha"/>
      <feOffset dy="4"/>
      <feGaussianBlur stdDeviation="5"/>
      <feComposite in2="hardAlpha" operator="out"/>
      <feColorMatrix type="matrix" values="0 0 0 0 1 0 0 0 0 1 0 0 0 0 1 0 0 0 0.5 0"/>
      <feBlend mode="normal" in2="BackgroundImageFix" result="effect1_dropShadow_3_4"/>
      <feBlend mode="normal" in="SourceGraphic" in2="effect1_dropShadow_3_4" result="shape"/>
    </filter>
    <filter id="filter2_b_3_4" x="37" y="5" width="170" height="170" filterUnits="userSpaceOnUse" color-interpolation-filters="sRGB">
      <feFlood flood-opacity="0" result="BackgroundImageFix"/>
      <feGaussianBlur in="BackgroundImageFix" stdDeviation="5"/>
      <feComposite in2="SourceAlpha" operator="in" result="effect1_backgroundBlur_3_4"/>
      <feBlend mode="normal" in="SourceGraphic" in2="effect1_backgroundBlur_3_4" result="shape"/>
    </filter>
    <filter id="filter3_b_3_4" x="153" y="175" width="40" height="40" filterUnits="userSpaceOnUse" color-interpolation-filters="sRGB">
      <feFlood flood-opacity="0" result="BackgroundImageFix"/>
      <feGaussianBlur in="BackgroundImageFix" stdDeviation="5"/>
      <feComposite in2="SourceAlpha" operator="in" result="effect1_backgroundBlur_3_4"/>
      <feBlend mode="normal" in="SourceGraphic" in2="effect1_backgroundBlur_3_4" result="shape"/>
    </filter>
    
    <linearGradient id="paint0_linear_3_4" x1="896" y1="135.5" x2="1.76971e-05" y2="110.5" gradientUnits="userSpaceOnUse">
      <stop stop-color="#BDC3C7"/>
      <stop offset="1" stop-color="#2C3E50"/>
    </linearGradient>
  </defs>
</svg>
