<svg width="896" height="288" viewBox="0 0 896 288" fill="none" xmlns="http://www.w3.org/2000/svg">
<rect width="896" height="288" rx="25" fill="url(#paint0_linear_3_4)" fill-opacity="0.2"/>
<path d="M352 75V18.36H360.64V75H352ZM363.52 75V18.36H372.16V75H363.52ZM375.04 75V18.36H380.8V75H375.04ZM383.688 75V18.36H386.568V75H383.688ZM389.448 75V18.36H398.088V75H389.448ZM406.728 75V18.36H412.488V75H406.728ZM415.375 75V18.36H418.255V75H415.375ZM421.135 75V18.36H429.775V75H421.135ZM432.655 75V18.36H438.415V75H432.655ZM447.062 75V18.36H452.823V75H447.062ZM461.463 75V18.36H464.343V75H461.463ZM472.983 75V18.36H475.863V75H472.983ZM478.75 75V18.36H481.63V75H478.75ZM484.51 75V18.36H493.15V75H484.51ZM501.79 75V18.36H507.55V75H501.79ZM510.438 75V18.36H513.318V75H510.438ZM521.958 75V18.36H527.718V75H521.958ZM530.598 75V18.36H533.478V75H530.598Z" fill="white"/>
<path d="M282.92 116.264H309.992C318.568 116.264 324.808 117.608 328.712 120.296C332.616 122.92 334.568 127.304 334.568 133.448C334.568 137.16 334.088 140.264 333.128 142.76C332.168 145.256 330.696 147.272 328.712 148.808C326.728 150.344 324.168 151.464 321.032 152.168C317.96 152.808 314.28 153.128 309.992 153.128H300.104V180.104L307.496 185H282.92L290.312 180.104V153.128L285.416 150.632L290.312 148.232V121.16L282.92 116.264ZM309.896 150.632C314.824 150.632 318.504 149.32 320.936 146.696C323.432 144.008 324.68 139.592 324.68 133.448C324.68 130.376 324.36 127.88 323.72 125.96C323.144 124.04 322.248 122.536 321.032 121.448C319.816 120.36 318.28 119.624 316.424 119.24C314.568 118.856 312.424 118.664 309.992 118.664L300.104 121.16V148.232L309.896 150.632ZM334.576 116.264H359.152L354.448 121.16L383.728 175.208V153.128L378.832 150.632L383.728 148.232V121.16L376.336 116.264H393.52L386.128 121.16V148.232L391.024 150.632L386.128 153.128V180.104L393.52 185H368.944L373.648 180.104L344.368 126.056V148.232L349.264 150.632L344.368 153.128V180.104L351.76 185H334.576L341.968 180.104V153.128L336.976 150.632L341.968 148.232V121.16L334.576 116.264ZM397.389 116.264H421.965L416.109 121.16L430.413 165.608L447.501 120.2L441.549 116.264H466.125L458.733 121.16V148.232L463.725 150.632L458.733 153.128V180.104L466.125 185H441.549L448.941 180.104V153.128L444.045 150.632L448.941 148.232V123.08L426.861 185L407.181 123.848V148.232L412.077 150.632L407.181 153.128V180.104L414.573 185H397.389L404.685 180.104V153.128L399.789 150.632L404.685 148.232V121.16L397.389 116.264ZM431.565 116.264L436.845 126.056L431.565 135.944L426.669 126.056L431.565 116.264ZM477.343 180.104V153.128L472.447 150.632L477.343 148.232V121.16L469.951 116.264H494.527L487.135 121.16V148.232L492.031 150.632L487.135 153.128V180.104L494.527 185H469.951L477.343 180.104ZM498.358 116.264H522.934L518.23 121.16L547.51 175.208V153.128L542.614 150.632L547.51 148.232V121.16L540.118 116.264H557.302L549.91 121.16V148.232L554.806 150.632L549.91 153.128V180.104L557.302 185H532.726L537.43 180.104L508.15 126.056V148.232L513.046 150.632L508.15 153.128V180.104L515.542 185H498.358L505.75 180.104V153.128L500.758 150.632L505.75 148.232V121.16L498.358 116.264ZM561.17 116.264H605.426L612.818 113.768L610.322 130.952L605.426 118.664L578.354 121.16V148.232L590.642 149.384L600.53 143.24L593.138 165.416L590.642 151.88L578.354 153.128V180.104L605.426 182.6L610.322 170.312L612.818 187.496L605.426 185H561.17L568.562 180.104V153.128L563.666 150.632L568.562 148.232V121.16L561.17 116.264Z" fill="white"/>
<g filter="url(#filter0_b_3_4)">
<circle cx="109" cy="98" r="81" fill="white" fill-opacity="0.05"/>
<circle cx="109" cy="98" r="80.5" stroke="white" stroke-opacity="0.2"/>
</g>
<defs>
<filter id="filter0_b_3_4" x="24" y="13" width="170" height="170" filterUnits="userSpaceOnUse" color-interpolation-filters="sRGB">
<feFlood flood-opacity="0" result="BackgroundImageFix"/>
<feGaussianBlur in="BackgroundImageFix" stdDeviation="2"/>
<feComposite in2="SourceAlpha" operator="in" result="effect1_backgroundBlur_3_4"/>
<feBlend mode="normal" in="SourceGraphic" in2="effect1_backgroundBlur_3_4" result="shape"/>
</filter>
<linearGradient id="paint0_linear_3_4" x1="896" y1="135.5" x2="1.76971e-05" y2="110.5" gradientUnits="userSpaceOnUse">
<stop stop-color="#BDC3C7"/>
<stop offset="1" stop-color="#2C3E50"/>
</linearGradient>
</defs>
</svg>
